<?xml version="1.0" encoding="UTF-8"?>
<svg xmlns="http://www.w3.org/2000/svg" viewBox="0 0 1380 160" font-family="'Hiragino Sans', 'Yu Gothic', 'Meiryo', 'Noto Sans CJK JP', sans-serif">
  <defs>
    <marker id="arrow-blue" viewBox="0 0 10 10" refX="9" refY="5" markerWidth="8" markerHeight="8" orient="auto-start-reverse">
      <path d="M0,0 L10,5 L0,10 z" fill="#60a5fa"/>
    </marker>
  </defs>

  <rect x="10" y="40" width="200" height="80" rx="10" fill="#1e3a8a" stroke="#3b82f6" stroke-width="2"/>
  <text x="110" y="86" text-anchor="middle" fill="#dbeafe" font-size="20" font-weight="bold">テキストを入力</text>

  <line x1="215" y1="80" x2="245" y2="80" stroke="#60a5fa" stroke-width="2.5" marker-end="url(#arrow-blue)"/>

  <rect x="250" y="40" width="200" height="80" rx="10" fill="#1e3a8a" stroke="#3b82f6" stroke-width="2"/>
  <text x="350" y="74" text-anchor="middle" fill="#dbeafe" font-size="20" font-weight="bold">追加ボタン</text>
  <text x="350" y="100" text-anchor="middle" fill="#dbeafe" font-size="20" font-weight="bold">クリック</text>

  <line x1="455" y1="80" x2="485" y2="80" stroke="#60a5fa" stroke-width="2.5" marker-end="url(#arrow-blue)"/>

  <rect x="490" y="40" width="200" height="80" rx="10" fill="#1e3a8a" stroke="#3b82f6" stroke-width="2"/>
  <text x="590" y="86" text-anchor="middle" fill="#dbeafe" font-size="20" font-weight="bold">入力値を取得</text>

  <line x1="695" y1="80" x2="725" y2="80" stroke="#60a5fa" stroke-width="2.5" marker-end="url(#arrow-blue)"/>

  <rect x="730" y="40" width="200" height="80" rx="10" fill="#1e3a8a" stroke="#3b82f6" stroke-width="2"/>
  <text x="830" y="86" text-anchor="middle" fill="#dbeafe" font-size="20" font-weight="bold">todos配列に追加</text>

  <line x1="935" y1="80" x2="965" y2="80" stroke="#60a5fa" stroke-width="2.5" marker-end="url(#arrow-blue)"/>

  <rect x="970" y="40" width="180" height="80" rx="10" fill="#1e3a8a" stroke="#3b82f6" stroke-width="2"/>
  <text x="1060" y="86" text-anchor="middle" fill="#dbeafe" font-size="20" font-weight="bold">DOM再描画</text>

  <line x1="1155" y1="80" x2="1185" y2="80" stroke="#60a5fa" stroke-width="2.5" marker-end="url(#arrow-blue)"/>

  <rect x="1190" y="40" width="180" height="80" rx="10" fill="#064e3b" stroke="#10b981" stroke-width="2"/>
  <text x="1280" y="86" text-anchor="middle" fill="#a7f3d0" font-size="20" font-weight="bold">入力欄クリア</text>
</svg>
